<svg width="145" height="45" viewBox="0 0 145 45" fill="none" xmlns="http://www.w3.org/2000/svg">
<circle cx="22.316" cy="22.7377" r="20" fill="#FF3300"/>
<path fill-rule="evenodd" clip-rule="evenodd" d="M12.116 12.5477C18.4018 8.80815 26.2301 8.80815 32.516 12.5477C36.2446 18.8366 36.2446 26.6588 32.516 32.9477C26.2301 36.6873 18.4018 36.6873 12.116 32.9477C8.38216 26.6674 8.38216 18.848 12.116 12.5677V12.5477Z" fill="#FF6633"/>
<rect x="16.316" y="16.7377" width="12" height="12" fill="white"/>
<path fill-rule="evenodd" clip-rule="evenodd" d="M84.316 9.7377H88.316V29.7377H84.316V9.7377ZM81.316 25.6477C80.9473 26.5235 80.4105 27.3185 79.736 27.9877C77.5841 30.106 74.3708 30.725 71.586 29.5577C70.7091 29.1902 69.9112 28.6571 69.236 27.9877C68.5585 27.3188 68.0183 26.5239 67.646 25.6477C66.8856 23.7822 66.8856 21.6932 67.646 19.8277C68.0183 18.9515 68.5585 18.1566 69.236 17.4877C69.9112 16.8183 70.7091 16.2852 71.586 15.9177C74.3743 14.7858 77.5677 15.401 79.736 17.4877C80.4105 18.157 80.9473 18.9519 81.316 19.8277C82.0893 21.6906 82.0893 23.7848 81.316 25.6477ZM64.836 19.8277H64.796C65.503 21.7033 65.503 23.7721 64.796 25.6477C64.4658 26.5105 63.9775 27.3041 63.356 27.9877C62.7555 28.6453 62.0318 29.1787 61.226 29.5577C59.6399 30.2564 57.8412 30.296 56.226 29.6677C55.509 29.3889 54.8584 28.9631 54.316 28.4177V35.3277H50.316V15.7377H54.316V17.0577C54.8846 16.5016 55.5669 16.0751 56.316 15.8077C57.9312 15.1794 59.7299 15.219 61.316 15.9177C62.1039 16.3023 62.8102 16.8354 63.396 17.4877C64.0175 18.1713 64.5058 18.9649 64.836 19.8277ZM92.316 31.3998C92.7804 31.3908 93.2416 31.3161 93.686 31.1777C94.1162 31.0361 94.4998 30.7804 94.796 30.4377C95.1289 30.0353 95.3834 29.574 95.546 29.0777L89.976 15.7377H94.586L97.686 24.2977L100.316 15.7377H104.796L100.016 29.2477C99.5954 30.5404 98.9562 31.7513 98.126 32.8277C97.4449 33.7144 96.5408 34.4045 95.506 34.8277C94.4854 35.2047 93.4013 35.376 92.316 35.3329V31.3998ZM60.736 24.5477V24.5577C60.4622 25.0547 60.053 25.4639 59.556 25.7377C58.4778 26.298 57.1942 26.298 56.116 25.7377C55.6196 25.471 55.2127 25.0641 54.946 24.5677C54.6444 24.006 54.4961 23.3749 54.516 22.7377C54.4979 22.1039 54.6462 21.4764 54.946 20.9177C55.2111 20.4176 55.6182 20.0071 56.116 19.7377C57.1942 19.1774 58.4778 19.1774 59.556 19.7377C60.0516 20.0088 60.4607 20.4144 60.736 20.9077C61.3088 22.0534 61.3088 23.402 60.736 24.5477ZM76.176 19.8477C76.6565 20.1163 77.0516 20.5149 77.316 20.9977C77.8885 22.0871 77.8885 23.3884 77.316 24.4777C77.0516 24.9605 76.6565 25.3591 76.176 25.6277C75.1508 26.1735 73.9212 26.1735 72.896 25.6277C72.4141 25.3576 72.0161 24.9596 71.746 24.4777C71.1734 23.3884 71.1734 22.0871 71.746 20.9977C72.0161 20.5158 72.4141 20.1178 72.896 19.8477C73.9212 19.3019 75.1508 19.3019 76.176 19.8477ZM110.316 9.7377H106.316V29.7377H110.316V9.7377ZM127.156 25.6477C126.787 26.5235 126.251 27.3185 125.576 27.9877C123.424 30.106 120.211 30.725 117.426 29.5577C116.549 29.1902 115.751 28.6571 115.076 27.9877C114.395 27.3216 113.855 26.5259 113.486 25.6477C112.713 23.7848 112.713 21.6906 113.486 19.8277C113.855 18.9495 114.395 18.1538 115.076 17.4877C115.751 16.8183 116.549 16.2852 117.426 15.9177C120.214 14.7858 123.408 15.401 125.576 17.4877C126.251 18.157 126.787 18.9519 127.156 19.8277C127.929 21.6906 127.929 23.7848 127.156 25.6477ZM122.016 19.8477C122.494 20.1193 122.889 20.5171 123.156 20.9977C123.729 22.0871 123.729 23.3884 123.156 24.4777C122.889 24.9583 122.494 25.3561 122.016 25.6277C120.991 26.1735 119.761 26.1735 118.736 25.6277C118.254 25.3576 117.856 24.9596 117.586 24.4777C117.013 23.3884 117.013 22.0871 117.586 20.9977C117.856 20.5158 118.254 20.1178 118.736 19.8477C119.761 19.3019 120.991 19.3019 122.016 19.8477ZM140.236 15.7377H144.326V29.0277C144.339 29.8788 144.2 30.7254 143.916 31.5277C143.67 32.2219 143.289 32.8608 142.796 33.4077C142.328 33.9383 141.769 34.3818 141.146 34.7177C140.516 35.0594 139.844 35.3151 139.146 35.4777C138.424 35.6381 137.686 35.7186 136.946 35.7177C136.023 35.7258 135.104 35.6012 134.216 35.3477C133.405 35.1132 132.642 34.7337 131.966 34.2277C131.288 33.7181 130.725 33.0705 130.316 32.3277L133.896 30.2477C134.065 30.5762 134.285 30.8765 134.546 31.1377C134.829 31.4206 135.17 31.6389 135.546 31.7777C136.039 31.9414 136.556 32.0225 137.076 32.0177C137.657 32.0285 138.234 31.9125 138.766 31.6777C139.226 31.4674 139.607 31.1175 139.856 30.6777C140.124 30.1665 140.255 29.5946 140.236 29.0177V27.7377C139.782 28.3201 139.196 28.7863 138.526 29.0977C137.782 29.4332 136.972 29.5972 136.156 29.5777C134.291 29.5989 132.503 28.8371 131.226 27.4777C130.608 26.822 130.119 26.0552 129.786 25.2177C129.106 23.4542 129.106 21.5012 129.786 19.7377C130.116 18.8896 130.604 18.1123 131.226 17.4477C132.503 16.0883 134.291 15.3266 136.156 15.3477C136.972 15.3282 137.782 15.4923 138.526 15.8277C139.193 16.1305 139.778 16.5862 140.236 17.1577V15.7377ZM139.796 24.1377V24.1477C139.515 24.6263 139.106 25.0175 138.616 25.2777C137.503 25.825 136.199 25.825 135.086 25.2777C134.596 25.0175 134.187 24.6263 133.906 24.1477C133.319 23.0905 133.319 21.8049 133.906 20.7477C134.187 20.2691 134.596 19.8779 135.086 19.6177C136.199 19.0704 137.503 19.0704 138.616 19.6177C139.105 19.8752 139.513 20.2628 139.796 20.7377C140.383 21.7949 140.383 23.0805 139.796 24.1377Z" fill="black" fill-opacity="0.87"/>
<circle cx="112.5" cy="24.5" r="5.5" fill="#FFCC00" fill-opacity="0.4"/>
<circle cx="22.65" cy="22.9027" r="22" fill="url(#paint0_radial_608_2929)" style="mix-blend-mode:luminosity"/>
<circle cx="22.65" cy="22.9027" r="22" fill="url(#paint1_radial_608_2929)" style="mix-blend-mode:screen"/>
<path fill-rule="evenodd" clip-rule="evenodd" d="M14.6634 6.94332C11.1309 8.09831 8.05889 12.0253 7.24518 14.7846C10.4039 16.0087 13.2657 18.8075 14.6634 22.267C16.1314 17.7821 19.4874 14.5208 22.9954 13.2988C21.0635 9.8671 18.2551 7.69687 15.4097 7.07427C15.1559 7.01876 14.9066 6.97508 14.6634 6.94332Z" fill="white" fill-opacity="0.16"/>
<defs>
<radialGradient id="paint0_radial_608_2929" cx="0" cy="0" r="1" gradientUnits="userSpaceOnUse" gradientTransform="translate(18.405 15.3848) rotate(90) scale(30.4828)">
<stop stop-color="#FFF7F5"/>
<stop offset="0.12608" stop-color="#F4EAE8" stop-opacity="0.8"/>
<stop offset="0.23824" stop-color="#D6C7C5" stop-opacity="0.8"/>
<stop offset="0.38736" stop-color="#AC9391" stop-opacity="0.8"/>
<stop offset="0.62432" stop-color="#7F524F"/>
<stop offset="1" stop-color="#661400" stop-opacity="0.8"/>
</radialGradient>
<radialGradient id="paint1_radial_608_2929" cx="0" cy="0" r="1" gradientUnits="userSpaceOnUse" gradientTransform="translate(21.3404 20.8217) rotate(46.9761) scale(25.3758)">
<stop stop-color="white" stop-opacity="0.01"/>
<stop offset="0.726859" stop-color="white" stop-opacity="0.01"/>
<stop offset="1" stop-color="white" stop-opacity="0.64"/>
</radialGradient>
</defs>
</svg>
